<svg width="20" height="20" viewBox="0 0 20 20" fill="none" xmlns="http://www.w3.org/2000/svg">
<path d="M16.9202 4.01322C16.5204 3.60554 16.0456 3.28215 15.5231 3.0615C15.0006 2.84086 14.4406 2.72729 13.875 2.72729C13.3094 2.72729 12.7494 2.84086 12.2268 3.0615C11.7043 3.28215 11.2296 3.60554 10.8298 4.01322L9.99997 4.85889L9.17017 4.01322C8.36252 3.19013 7.26713 2.72772 6.12495 2.72772C4.98277 2.72772 3.88737 3.19013 3.07973 4.01322C2.27209 4.83631 1.81836 5.95266 1.81836 7.11668C1.81836 8.28071 2.27209 9.39706 3.07973 10.2201L3.90953 11.0658L9.99997 17.2728L16.0904 11.0658L16.9202 10.2201C17.3202 9.81266 17.6376 9.32885 17.8541 8.79635C18.0706 8.26385 18.182 7.69309 18.182 7.11668C18.182 6.54028 18.0706 5.96952 17.8541 5.43702C17.6376 4.90452 17.3202 4.4207 16.9202 4.01322Z" stroke="#767676" stroke-width="1.5" stroke-linecap="round" stroke-linejoin="round"/>
</svg>
