<svg width="22" height="25" viewBox="0 0 22 25" fill="none" xmlns="http://www.w3.org/2000/svg">
<g filter="url(#filter0_d_11915_4163)">
<g filter="url(#filter1_d_11915_4163)">
<path fill-rule="evenodd" clip-rule="evenodd" d="M16.3536 6.35355C16.5488 6.15829 16.5488 5.84171 16.3536 5.64645C16.1583 5.45118 15.8417 5.45118 15.6464 5.64645L11 10.2929L6.35355 5.64645C6.15829 5.45118 5.84171 5.45118 5.64645 5.64645C5.45118 5.84171 5.45118 6.15829 5.64645 6.35355L10.2929 11L5.64645 15.6464C5.45118 15.8417 5.45118 16.1583 5.64645 16.3536C5.84171 16.5488 6.15829 16.5488 6.35355 16.3536L11 11.7071L15.6464 16.3536C15.8417 16.5488 16.1583 16.5488 16.3536 16.3536C16.5488 16.1583 16.5488 15.8417 16.3536 15.6464L11.7071 11L16.3536 6.35355Z" fill="white"/>
</g>
</g>
<defs>
<filter id="filter0_d_11915_4163" x="-4" y="0" width="30" height="30" filterUnits="userSpaceOnUse" color-interpolation-filters="sRGB">
<feFlood flood-opacity="0" result="BackgroundImageFix"/>
<feColorMatrix in="SourceAlpha" type="matrix" values="0 0 0 0 0 0 0 0 0 0 0 0 0 0 0 0 0 0 127 0" result="hardAlpha"/>
<feOffset dy="4"/>
<feGaussianBlur stdDeviation="2"/>
<feComposite in2="hardAlpha" operator="out"/>
<feColorMatrix type="matrix" values="0 0 0 0 0 0 0 0 0 0 0 0 0 0 0 0 0 0 0.25 0"/>
<feBlend mode="normal" in2="BackgroundImageFix" result="effect1_dropShadow_11915_4163"/>
<feBlend mode="normal" in="SourceGraphic" in2="effect1_dropShadow_11915_4163" result="shape"/>
</filter>
<filter id="filter1_d_11915_4163" x="3.5" y="3.5" width="15" height="15" filterUnits="userSpaceOnUse" color-interpolation-filters="sRGB">
<feFlood flood-opacity="0" result="BackgroundImageFix"/>
<feColorMatrix in="SourceAlpha" type="matrix" values="0 0 0 0 0 0 0 0 0 0 0 0 0 0 0 0 0 0 127 0" result="hardAlpha"/>
<feOffset/>
<feGaussianBlur stdDeviation="1"/>
<feComposite in2="hardAlpha" operator="out"/>
<feColorMatrix type="matrix" values="0 0 0 0 0 0 0 0 0 0 0 0 0 0 0 0 0 0 0.5 0"/>
<feBlend mode="normal" in2="BackgroundImageFix" result="effect1_dropShadow_11915_4163"/>
<feBlend mode="normal" in="SourceGraphic" in2="effect1_dropShadow_11915_4163" result="shape"/>
</filter>
</defs>
</svg>
